<svg xmlns="http://www.w3.org/2000/svg" width="300" height="108" viewBox="0 0 2386.46 539.292">
  <g id="COMPOSITE-LOGO" transform="translate(-185.711 -271)">
    <g id="LOGO_E_FONTE" data-name="LOGO E FONTE">
      <path id="CIRCULO" d="M260.706,0C404.69,0,521.413,116.722,521.413,260.706S404.69,521.413,260.706,521.413,0,404.69,0,260.706,116.722,0,260.706,0Z" transform="translate(725.004 289.197) rotate(92)" fill="#ececec"/>
      <g id="LOGO" transform="translate(-449.869 11.754)">
        <path id="Caminho_8" data-name="Caminho 8" d="M36.388,118.2,39.663,16.536,58.321-1.95l70.544,70.807L58.03,139.373Z" transform="translate(913.091 493.921) rotate(-2)" fill="#dedede"/>
        <path id="Caminho_5" data-name="Caminho 5" d="M0,0H233.116" transform="translate(977.386 468.802) rotate(133)" fill="rgba(0,0,0,0)" stroke="#262424" stroke-width="20"/>
        <path id="Caminho_4" data-name="Caminho 4" d="M-15.922-83.009l96.754,96.48-4.684,137.05L-20.764,54.1Z" transform="translate(852.347 443.921) rotate(-2)" fill="#d4d4d4"/>
        <path id="Caminho_12" data-name="Caminho 12" d="M0,0H233.27" transform="translate(1065.148 550.642) rotate(133)" fill="none" stroke="#262424" stroke-width="20"/>
        <path id="Caminho_15" data-name="Caminho 15" d="M0,0H2.7V6H0Z" transform="translate(810.869 629.23)" fill="#cccccc"/>
        <path id="Caminho_6" data-name="Caminho 6" d="M0,0H299.4" transform="translate(823.585 335.246) rotate(90)" fill="rgba(0,0,0,0)" stroke="#262424" stroke-width="20"/>
        <path id="Caminho_13" data-name="Caminho 13" d="M0,0H164.472" transform="translate(943.55 450) rotate(90)" fill="none" stroke="#262424" stroke-width="20"/>
        <path id="Caminho_10" data-name="Caminho 10" d="M0,0H326.667" transform="translate(826.911 341.832) rotate(43)" fill="rgba(0,0,0,0)" stroke="#262424" stroke-width="20"/>
        <path id="Caminho_14" data-name="Caminho 14" d="M0,0H223.107" transform="translate(820.81 500.222) rotate(43)" fill="none" stroke="#262424" stroke-width="20"/>
        <path id="Caminho_9" data-name="Caminho 9" d="M930.5,449.8l-6.254-7.194,25.027.627-.856,26.833" transform="translate(545.518 -495.528) rotate(41)" fill="#77d3c8"/>
        <path id="Caminho_7" data-name="Caminho 7" d="M7.383.931,47.294,40.95,4.506,83.675Z" transform="matrix(0.999, -0.035, 0.035, 0.999, 826.157, 524.884)" fill="#cecece"/>
      </g>
      <path id="PONTE" d="M170.66-586.082q53.2,0,83.178,26.6t29.98,74.386A120.988,120.988,0,0,1,272.773-433.7q-11.045,23.894-35.615,38.771t-61.989,14.877H126.93v119.92H83.2V-586.082Zm4.508,163.65q23.443,0,38.095-9.918t20.963-24.119a68,68,0,0,0,6.312-27.726,63.037,63.037,0,0,0-15.328-41.7q-15.328-18.259-47.788-18.258H126.93v121.723Zm155.986-.451A160.763,160.763,0,0,1,353.7-505.835a171.153,171.153,0,0,1,60.636-61.087,159.184,159.184,0,0,1,83.178-22.767,159.551,159.551,0,0,1,82.952,22.767,172.4,172.4,0,0,1,61.087,61.087,159.553,159.553,0,0,1,22.767,82.952,161.583,161.583,0,0,1-22.541,83.4,166.489,166.489,0,0,1-61.087,60.636,163.209,163.209,0,0,1-83.178,22.316,164.109,164.109,0,0,1-83.4-22.091A164.074,164.074,0,0,1,353.471-338.8Q331.155-376.9,331.155-422.882Zm45.083.451a122.363,122.363,0,0,0,16.23,61.763,121.72,121.72,0,0,0,44.406,45.083,118.62,118.62,0,0,0,61.538,16.681A117.473,117.473,0,0,0,559.5-315.36a118.9,118.9,0,0,0,43.73-45.083,125.817,125.817,0,0,0,16-62.44A125.689,125.689,0,0,0,603-485.547a121.279,121.279,0,0,0-44.181-45.534,117.438,117.438,0,0,0-61.312-16.681A116.25,116.25,0,0,0,436.2-530.855,121.279,121.279,0,0,0,392.242-485.1,127.075,127.075,0,0,0,376.238-422.432Zm645.584-163.65v336.768h-1.353l-239.389-243,.9,232.176H737.8V-596h2.254L978.993-350.3l-.9-235.782Zm286.275,0v41.927h-87.46v284.021h-43.73V-544.155H1091.7v-41.927Zm281.767,0v41.927H1421.705v99.182h150.125v41.927H1421.705v100.534h174.47v42.378h-218.2V-586.082Z" transform="translate(790.2 962.657)" fill="#8c9193"/>
    </g>
    <path id="beta" d="M5.859,0V-57.266H27.344a26.591,26.591,0,0,1,10.527,1.738,13.536,13.536,0,0,1,6.211,5.352,14.107,14.107,0,0,1,2.246,7.559A12.984,12.984,0,0,1,44.336-35.7a14.225,14.225,0,0,1-6.016,5.234,14.957,14.957,0,0,1,7.988,5.2A13.914,13.914,0,0,1,49.1-16.6a16.727,16.727,0,0,1-1.7,7.48,14.483,14.483,0,0,1-4.2,5.332,17.525,17.525,0,0,1-6.27,2.832A38.132,38.132,0,0,1,27.7,0Zm7.578-33.2H25.82a27.631,27.631,0,0,0,7.227-.664A8.032,8.032,0,0,0,37.4-36.719a8.214,8.214,0,0,0,1.465-5,9.209,9.209,0,0,0-1.367-5.02,6.92,6.92,0,0,0-3.906-2.969,32.624,32.624,0,0,0-8.711-.8H13.438Zm0,26.445H27.7a32.818,32.818,0,0,0,5.156-.273,12.355,12.355,0,0,0,4.375-1.562,8.3,8.3,0,0,0,2.891-3.184A9.964,9.964,0,0,0,41.25-16.6a9.516,9.516,0,0,0-1.641-5.566,8.654,8.654,0,0,0-4.551-3.32,28.216,28.216,0,0,0-8.379-.957H13.438Zm73.594-6.6,7.266.9A17.727,17.727,0,0,1,87.93-2.578Q83.281.938,76.055.938q-9.1,0-14.434-5.605T56.289-20.391q0-10.469,5.391-16.25a18.247,18.247,0,0,1,13.984-5.781,17.735,17.735,0,0,1,13.594,5.664q5.273,5.664,5.273,15.938,0,.625-.039,1.875H63.555q.391,6.836,3.867,10.469a11.51,11.51,0,0,0,8.672,3.633,10.759,10.759,0,0,0,6.6-2.031A13.484,13.484,0,0,0,87.031-13.359ZM63.945-24.727H87.109q-.469-5.234-2.656-7.852a10.776,10.776,0,0,0-8.711-4.062A11.17,11.17,0,0,0,67.6-33.4,12.832,12.832,0,0,0,63.945-24.727ZM118.477-6.289l1.016,6.211a26.081,26.081,0,0,1-5.312.625,12.027,12.027,0,0,1-5.937-1.211,6.78,6.78,0,0,1-2.969-3.184q-.859-1.973-.859-8.3V-36.016H99.258v-5.469h5.156V-51.758l6.992-4.219v14.492h7.07v5.469h-7.07v24.258a12.254,12.254,0,0,0,.371,3.867,2.928,2.928,0,0,0,1.211,1.367,4.678,4.678,0,0,0,2.4.508A22.873,22.873,0,0,0,118.477-6.289Zm33.945,1.172A26.182,26.182,0,0,1,144.9-.43,21.728,21.728,0,0,1,137.148.938q-6.836,0-10.508-3.34a11.024,11.024,0,0,1-3.672-8.535,11.351,11.351,0,0,1,1.387-5.566,11.48,11.48,0,0,1,3.633-4.043,17.082,17.082,0,0,1,5.059-2.3,50.242,50.242,0,0,1,6.25-1.055,64.267,64.267,0,0,0,12.539-2.422q.039-1.445.039-1.836,0-4.3-1.992-6.055-2.7-2.383-8.008-2.383-4.961,0-7.324,1.738t-3.5,6.152l-6.875-.937a17.035,17.035,0,0,1,3.086-7.129,13.526,13.526,0,0,1,6.211-4.18,27.7,27.7,0,0,1,9.414-1.465,24.917,24.917,0,0,1,8.633,1.25,11.375,11.375,0,0,1,4.883,3.145,11.059,11.059,0,0,1,2.188,4.785,39.589,39.589,0,0,1,.352,6.484v9.375a99.506,99.506,0,0,0,.449,12.4A15.647,15.647,0,0,0,161.172,0h-7.344A14.908,14.908,0,0,1,152.422-5.117Zm-.586-15.7a51.586,51.586,0,0,1-11.484,2.656,26.564,26.564,0,0,0-6.133,1.406,6.114,6.114,0,0,0-2.773,2.285,6,6,0,0,0-.977,3.34A5.988,5.988,0,0,0,132.6-6.445q2.129,1.875,6.23,1.875a14.5,14.5,0,0,0,7.227-1.777,10.945,10.945,0,0,0,4.648-4.863,16.985,16.985,0,0,0,1.133-7.031Z" transform="translate(2411 431)" fill="#8c9193"/>
  </g>
</svg>
